<svg width="116" height="37" viewBox="0 0 116 37" fill="none" xmlns="http://www.w3.org/2000/svg">
<rect width="116" height="37" rx="18.5" fill="#007376"/>
<path d="M26.2 12.928L23.016 24H20.152L16.856 12.928H19.368L21.624 22.048L23.8 12.928H26.2ZM30.3599 15.264C31.6292 15.264 32.6212 15.664 33.3359 16.464C34.0505 17.2533 34.4079 18.352 34.4079 19.76C34.4079 20.656 34.2425 21.4453 33.9119 22.128C33.5919 22.8 33.1225 23.3227 32.5039 23.696C31.8959 24.0693 31.1759 24.256 30.3439 24.256C29.0745 24.256 28.0772 23.8613 27.3519 23.072C26.6372 22.272 26.2799 21.168 26.2799 19.76C26.2799 18.864 26.4399 18.08 26.7599 17.408C27.0905 16.7253 27.5599 16.1973 28.1679 15.824C28.7865 15.4507 29.5172 15.264 30.3599 15.264ZM30.3599 16.96C29.7839 16.96 29.3519 17.1893 29.0639 17.648C28.7865 18.096 28.6479 18.8 28.6479 19.76C28.6479 20.72 28.7865 21.4293 29.0639 21.888C29.3519 22.336 29.7785 22.56 30.3439 22.56C30.9092 22.56 31.3305 22.336 31.6079 21.888C31.8959 21.4293 32.0399 20.72 32.0399 19.76C32.0399 18.8 31.9012 18.096 31.6239 17.648C31.3465 17.1893 30.9252 16.96 30.3599 16.96ZM38.4076 15.52V24H36.1356V15.52H38.4076ZM37.2556 11.152C37.661 11.152 37.9916 11.28 38.2476 11.536C38.5143 11.7813 38.6476 12.096 38.6476 12.48C38.6476 12.864 38.5143 13.184 38.2476 13.44C37.9916 13.6853 37.661 13.808 37.2556 13.808C36.8503 13.808 36.5196 13.6853 36.2636 13.44C36.0076 13.184 35.8796 12.864 35.8796 12.48C35.8796 12.096 36.0076 11.7813 36.2636 11.536C36.5196 11.28 36.8503 11.152 37.2556 11.152ZM45.0353 15.28C45.2913 15.28 45.5739 15.3227 45.8833 15.408L45.4993 17.6C45.2006 17.5253 44.9499 17.488 44.7473 17.488C44.2459 17.488 43.8566 17.664 43.5793 18.016C43.3019 18.368 43.0833 18.9013 42.9233 19.616V24H40.6513V15.52H42.6193L42.8273 17.168C43.0299 16.5707 43.3233 16.1067 43.7073 15.776C44.1019 15.4453 44.5446 15.28 45.0353 15.28ZM55.4929 15.264C56.5595 15.264 57.3489 15.6587 57.8609 16.448C58.3835 17.2267 58.6449 18.3253 58.6449 19.744C58.6449 20.608 58.5115 21.3813 58.2449 22.064C57.9782 22.7467 57.5889 23.2853 57.0769 23.68C56.5755 24.064 55.9782 24.256 55.2849 24.256C54.4209 24.256 53.7222 23.952 53.1889 23.344V27.264L50.9169 27.52V15.52H52.9169L53.0289 16.512C53.3489 16.096 53.7222 15.7867 54.1489 15.584C54.5862 15.3707 55.0342 15.264 55.4929 15.264ZM54.6129 22.56C55.7222 22.56 56.2769 21.6267 56.2769 19.76C56.2769 18.736 56.1542 18.0107 55.9089 17.584C55.6635 17.1573 55.2902 16.944 54.7889 16.944C54.4689 16.944 54.1702 17.0453 53.8929 17.248C53.6262 17.44 53.3915 17.7013 53.1889 18.032V21.728C53.5515 22.2827 54.0262 22.56 54.6129 22.56ZM62.5601 24.256C61.8668 24.256 61.3281 24.0587 60.9441 23.664C60.5601 23.2587 60.3681 22.688 60.3681 21.952V12.144L62.6401 11.888V21.888C62.6401 22.2613 62.7948 22.448 63.1041 22.448C63.2748 22.448 63.4241 22.416 63.5521 22.352L64.0161 23.968C63.5788 24.16 63.0935 24.256 62.5601 24.256ZM72.1265 24H70.1585L70.0465 22.864C69.7478 23.3333 69.3852 23.6853 68.9585 23.92C68.5318 24.144 68.0358 24.256 67.4705 24.256C66.7025 24.256 66.1158 24.0267 65.7105 23.568C65.3052 23.0987 65.1025 22.448 65.1025 21.616V15.52H67.3745V21.328C67.3745 21.776 67.4492 22.096 67.5985 22.288C67.7478 22.4693 67.9825 22.56 68.3025 22.56C68.9105 22.56 69.4278 22.192 69.8545 21.456V15.52H72.1265V24ZM77.186 15.264C78.3807 15.264 79.4047 15.6053 80.258 16.288L79.394 17.584C78.6793 17.136 77.9753 16.912 77.282 16.912C76.9087 16.912 76.6207 16.9813 76.418 17.12C76.2153 17.2587 76.114 17.4453 76.114 17.68C76.114 17.8507 76.1567 17.9947 76.242 18.112C76.338 18.2293 76.5087 18.3413 76.754 18.448C77.01 18.5547 77.3887 18.6827 77.89 18.832C78.786 19.0773 79.4527 19.408 79.89 19.824C80.3273 20.2293 80.546 20.7893 80.546 21.504C80.546 22.0693 80.3807 22.56 80.05 22.976C79.73 23.392 79.2927 23.712 78.738 23.936C78.1833 24.1493 77.5647 24.256 76.882 24.256C76.1673 24.256 75.5167 24.1493 74.93 23.936C74.3433 23.712 73.842 23.408 73.426 23.024L74.546 21.776C75.2607 22.3307 76.018 22.608 76.818 22.608C77.2447 22.608 77.5807 22.528 77.826 22.368C78.082 22.1973 78.21 21.968 78.21 21.68C78.21 21.456 78.162 21.28 78.066 21.152C77.97 21.024 77.794 20.9067 77.538 20.8C77.282 20.6827 76.882 20.5493 76.338 20.4C75.4847 20.1653 74.85 19.8347 74.434 19.408C74.0287 18.9707 73.826 18.432 73.826 17.792C73.826 17.312 73.9647 16.88 74.242 16.496C74.5193 16.112 74.9087 15.8133 75.41 15.6C75.922 15.376 76.514 15.264 77.186 15.264Z" fill="#007376"/>
<path d="M97.75 23L102.25 18.5L97.75 14" stroke="white" stroke-width="2" stroke-linecap="round" stroke-linejoin="round"/>
</svg>
