<svg width="18" height="18" viewBox="0 0 18 18" fill="none" xmlns="http://www.w3.org/2000/svg">
<path d="M5.25 17.25C4.8375 17.25 4.4845 17.1033 4.191 16.8098C3.897 16.5158 3.75 16.1625 3.75 15.75V2.25C3.75 1.8375 3.897 1.48425 4.191 1.19025C4.4845 0.89675 4.8375 0.75 5.25 0.75H12.75C13.1625 0.75 13.5158 0.89675 13.8098 1.19025C14.1033 1.48425 14.25 1.8375 14.25 2.25V15.75C14.25 16.1625 14.1033 16.5158 13.8098 16.8098C13.5158 17.1033 13.1625 17.25 12.75 17.25H5.25ZM5.25 13.5V15.75H12.75V13.5H5.25ZM9 15.375C9.2125 15.375 9.39075 15.303 9.53475 15.159C9.67825 15.0155 9.75 14.8375 9.75 14.625C9.75 14.4125 9.67825 14.2345 9.53475 14.091C9.39075 13.947 9.2125 13.875 9 13.875C8.7875 13.875 8.6095 13.947 8.466 14.091C8.322 14.2345 8.25 14.4125 8.25 14.625C8.25 14.8375 8.322 15.0155 8.466 15.159C8.6095 15.303 8.7875 15.375 9 15.375ZM5.25 12H12.75V4.5H5.25V12ZM5.25 3H12.75V2.25H5.25V3Z" fill="white"/>
</svg>
