<svg width="18" height="18" viewBox="0 0 18 18" fill="none" xmlns="http://www.w3.org/2000/svg">
<path d="M2.56067 7.50001H11.25C11.6642 7.50001 12 7.16424 12 6.75002C12 6.33581 11.6642 6.00003 11.25 6.00003H2.56067L4.28034 4.28036C4.57323 3.98747 4.57323 3.51258 4.28034 3.2197C3.98745 2.92681 3.51256 2.92681 3.21968 3.2197L0.219652 6.21969C0.20218 6.23716 0.185656 6.25555 0.169976 6.27468C0.162875 6.28332 0.156687 6.29246 0.150043 6.30136C0.142027 6.31205 0.133766 6.32249 0.126312 6.33363C0.119176 6.34428 0.112988 6.35536 0.106449 6.36629C0.100437 6.37635 0.0941093 6.38619 0.0885546 6.39656C0.0825781 6.40771 0.0775156 6.4192 0.0721718 6.43059C0.0670741 6.44139 0.0616952 6.452 0.0570898 6.46308C0.0525195 6.47415 0.0487929 6.48547 0.0447851 6.49672C0.0405312 6.50857 0.035996 6.52024 0.0323398 6.53234C0.0289296 6.54359 0.0264335 6.55501 0.0235859 6.5664C0.020457 6.57874 0.0170117 6.59094 0.0145156 6.60353C0.011914 6.61671 0.0103671 6.63 0.00846869 6.64325C0.00692181 6.65419 0.00481244 6.66498 0.00372259 6.67605C-0.00112897 6.72527 -0.00112897 6.77488 0.00372259 6.8241C0.00481244 6.83517 0.00688666 6.84593 0.00846869 6.8569C0.0103671 6.87015 0.011914 6.88348 0.0145507 6.89663C0.0170468 6.90921 0.0204921 6.92138 0.023621 6.93372C0.0264687 6.94511 0.0289648 6.95653 0.0323749 6.96778C0.0360312 6.97988 0.0405663 6.99158 0.0448202 7.0034C0.0488632 7.01465 0.0525546 7.02597 0.0571249 7.03704C0.0616952 7.04811 0.0671093 7.0587 0.072207 7.06949C0.0775859 7.08088 0.0826484 7.09238 0.0886249 7.10356C0.0941796 7.11389 0.100473 7.1237 0.106484 7.13375C0.113023 7.14472 0.119211 7.1558 0.126348 7.16649C0.133766 7.17759 0.142027 7.188 0.150008 7.19869C0.156687 7.20762 0.162875 7.21676 0.170012 7.22544C0.185586 7.24443 0.202004 7.26267 0.219336 7.28C0.219476 7.28015 0.219547 7.28029 0.219687 7.28039L3.21968 10.2804C3.51256 10.5733 3.98745 10.5733 4.28034 10.2804C4.57323 9.9875 4.57323 9.51261 4.28034 9.21972L2.56067 7.50001Z" fill="#007376"/>
<path d="M17.83 11.7254C17.8372 11.7167 17.8434 11.7075 17.8501 11.6985C17.858 11.6879 17.8663 11.6775 17.8737 11.6664C17.8808 11.6557 17.887 11.6446 17.8936 11.6337C17.8995 11.6236 17.9058 11.6138 17.9113 11.6035C17.9173 11.5924 17.9224 11.5808 17.9278 11.5694C17.9329 11.5586 17.9382 11.5481 17.9428 11.537C17.9474 11.5259 17.9511 11.5146 17.9552 11.5034C17.9594 11.4915 17.9639 11.4799 17.9676 11.4678C17.971 11.4565 17.9735 11.445 17.9764 11.4337C17.9795 11.4214 17.9829 11.4092 17.9854 11.3966C17.988 11.3834 17.9896 11.3701 17.9915 11.3569C17.9931 11.3459 17.9952 11.3352 17.9962 11.3241C18.0011 11.2749 18.0011 11.2253 17.9962 11.176C17.9952 11.165 17.9931 11.1542 17.9915 11.1432C17.9896 11.13 17.9881 11.1167 17.9854 11.1035C17.9829 11.0909 17.9795 11.0788 17.9764 11.0664C17.9735 11.055 17.971 11.0436 17.9676 11.0323C17.9639 11.0203 17.9594 11.0085 17.9552 10.9967C17.9511 10.9855 17.9474 10.9742 17.9428 10.9631C17.9383 10.9521 17.9329 10.9415 17.9278 10.9307C17.9224 10.9193 17.9174 10.9078 17.9113 10.8966C17.9058 10.8863 17.8995 10.8765 17.8936 10.8664C17.887 10.8555 17.8808 10.8444 17.8737 10.8337C17.8662 10.8226 17.858 10.8122 17.8501 10.8016C17.8434 10.7926 17.8371 10.7834 17.83 10.7747C17.8146 10.7559 17.7982 10.7378 17.7811 10.7206C17.7808 10.7203 17.7806 10.72 17.7803 10.7198L14.7803 7.71979C14.4874 7.4269 14.0126 7.4269 13.7197 7.71979C13.4268 8.01267 13.4268 8.48756 13.7197 8.78045L15.4393 10.5001H6.75001C6.3358 10.5001 6.00002 10.8359 6.00002 11.2501C6.00002 11.6643 6.3358 12.0001 6.75001 12.0001H15.4393L13.7197 13.7198C13.4268 14.0127 13.4268 14.4875 13.7197 14.7804C14.0126 15.0733 14.4874 15.0733 14.7803 14.7804L17.7803 11.7804C17.7806 11.7802 17.7808 11.7799 17.7811 11.7796C17.7982 11.7623 17.8146 11.7442 17.83 11.7254Z" fill="#007376"/>
</svg>
