<svg width="122" height="126" viewBox="0 0 122 126" fill="none" xmlns="http://www.w3.org/2000/svg">
<path d="M108.214 45.0696H105.294V30.4698C105.294 30.3781 105.28 30.2871 105.268 30.1941C105.263 29.615 105.085 29.045 104.702 28.5946L81.2531 0.844993C81.2462 0.837179 81.2389 0.834881 81.2342 0.827757C81.0947 0.665285 80.9316 0.530849 80.7593 0.415028C80.708 0.378948 80.6568 0.349304 80.6031 0.318739C80.4541 0.234861 80.2957 0.164311 80.1326 0.113524C80.0885 0.101574 80.049 0.0827298 80.0049 0.0703203C79.8274 0.027117 79.6435 0 79.4577 0H21.8282C19.1965 0 17.0589 2.21739 17.0589 4.94127V45.0682H14.1391C10.3744 45.0682 7.32195 48.2294 7.32195 52.1301V88.8552C7.32195 92.7541 10.3744 95.9185 14.1391 95.9185H17.0589V121.059C17.0589 123.783 19.1965 126 21.8282 126H100.524C103.153 126 105.294 123.783 105.294 121.059V95.9188H108.214C111.977 95.9188 115.03 92.7557 115.03 88.8566V52.1315C115.03 48.2296 111.977 45.0696 108.214 45.0696ZM21.8282 4.94127H77.0727V30.2212C77.0727 31.5862 78.1414 32.6918 79.4574 32.6918H100.524V45.0693H21.8282V4.94127ZM57.7319 71.9703C51.8138 69.8352 47.9579 66.4428 47.9579 61.0801C47.9579 54.7825 53.0289 49.9649 61.4296 49.9649C65.4461 49.9649 68.4051 50.8407 70.517 51.8279L68.7225 58.5612C67.2962 57.8472 64.7604 56.8073 61.2717 56.8073C57.7854 56.8073 56.0947 58.4502 56.0947 60.3659C56.0947 62.7207 58.1014 63.7598 62.7004 65.5668C68.9869 67.9749 71.946 71.3669 71.946 76.5685C71.946 82.7523 67.3497 88.0096 57.574 88.0096C53.5063 88.0096 49.4889 86.912 47.4819 85.7644L49.1189 78.8665C51.2865 80.0188 54.6145 81.166 58.0502 81.166C61.7481 81.166 63.7039 79.5785 63.7039 77.1683C63.7028 74.8679 62.011 73.5555 57.7319 71.9703ZM15.7763 69.5601C15.7763 56.9712 24.4436 49.9649 35.2196 49.9649C39.3946 49.9649 42.5646 50.8407 43.9923 51.6078L42.3526 58.2298C40.7156 57.5211 38.4415 56.865 35.5891 56.865C29.1959 56.865 24.2307 60.8579 24.2307 69.0674C24.2307 76.4575 28.4566 81.1092 35.6446 81.1092C38.0728 81.1092 40.7679 80.5627 42.3526 79.9055L43.5688 86.4195C42.0888 87.1871 38.7611 88.0096 34.4281 88.0096C22.1172 88.0098 15.7763 80.0696 15.7763 69.5601ZM100.524 119.72H21.8282V95.9188H100.524V119.72ZM95.197 87.4599H85.7921L74.3796 50.5679H83.205L87.5363 66.1703C88.7516 70.5471 89.8607 74.7618 90.7081 79.3604H90.8653C91.7632 74.9256 92.8717 70.5469 94.0874 66.3321L98.6318 50.5679H107.194L95.197 87.4599Z" fill="#007376"/>
</svg>
